<svg width="331" height="171" viewBox="0 0 331 171" fill="none" xmlns="http://www.w3.org/2000/svg">
<mask id="mask0" style="mask-type:alpha" maskUnits="userSpaceOnUse" x="0" y="0" width="331" height="171">
<path d="M326 0H5C2.23858 0 0 1.91399 0 4.275V166.725C0 169.086 2.23858 171 5 171H326C328.761 171 331 169.086 331 166.725V4.275C331 1.91399 328.761 0 326 0Z" fill="url(#paint0_linear)"/>
</mask>
<g mask="url(#mask0)">
<path opacity="0.5" d="M480.402 71.5966C468.288 70.7509 440.447 74.5512 425.989 96.5179C407.916 123.976 427.332 150.386 416.823 178.255C409.066 198.824 374.192 245.702 324.302 254.814" stroke="#D2D2D2" stroke-width="2"/>
<path opacity="0.5" d="M463.945 66.312C451.832 65.4662 423.99 69.2664 409.532 91.2334C391.46 118.692 410.875 145.102 400.366 172.97C392.609 193.538 357.735 240.416 307.846 249.53" stroke="#D2D2D2" stroke-width="2"/>
<path opacity="0.5" d="M448.478 59.9047C436.364 59.059 408.522 62.8592 394.064 84.8262C375.992 112.285 395.407 138.695 384.898 166.563C377.142 187.131 342.268 234.009 292.378 243.123" stroke="#D2D2D2" stroke-width="2"/>
<path opacity="0.5" d="M434.421 52.2675C422.307 51.4218 394.465 55.2221 380.007 77.1891C361.935 104.648 381.35 131.058 370.841 158.926C363.085 179.494 328.211 226.372 278.321 235.486" stroke="#D2D2D2" stroke-width="2"/>
<path opacity="0.5" d="M420.057 41.7812C407.944 40.9354 380.102 44.7357 365.644 66.7023C347.572 94.1605 366.987 120.571 356.478 148.439C348.721 169.008 313.847 215.886 263.957 224.999" stroke="#D2D2D2" stroke-width="2"/>
<path opacity="0.5" d="M407.523 33.1079C395.409 32.2621 367.567 36.0623 353.109 58.029C335.037 85.4871 354.452 111.897 343.943 139.766C336.187 160.335 301.313 207.213 251.423 216.325" stroke="#D2D2D2" stroke-width="2"/>
<path opacity="0.5" d="M393.922 25.1342C381.809 24.2885 353.967 28.0887 339.509 50.0554C321.437 77.514 340.852 103.924 330.343 131.792C322.587 152.361 287.713 199.239 237.823 208.352" stroke="#D2D2D2" stroke-width="2"/>
<path opacity="0.5" d="M379.349 17.9086C367.236 17.0629 339.394 20.8632 324.936 42.8298C306.864 70.2882 326.279 96.6988 315.77 124.567C308.013 145.135 273.139 192.014 223.249 201.127" stroke="#D2D2D2" stroke-width="2"/>
<path opacity="0.5" d="M363.916 11.4677C351.802 10.622 323.961 14.4223 309.503 36.3889C291.431 63.8473 310.846 90.258 300.337 118.126C292.58 138.695 257.706 185.573 207.816 194.686" stroke="#D2D2D2" stroke-width="2"/>
<path opacity="0.5" d="M347.748 5.82562C335.635 4.97994 307.793 8.78019 293.335 30.7468C275.263 58.2052 294.678 84.6158 284.169 112.484C276.412 133.053 241.538 179.931 191.648 189.044" stroke="#D2D2D2" stroke-width="2"/>
<path opacity="0.5" d="M330.972 0.979451C318.859 0.133682 291.017 3.9339 276.559 25.9005C258.487 53.3589 277.902 79.769 267.393 107.637C259.636 128.206 224.762 175.084 174.873 184.197" stroke="#D2D2D2" stroke-width="2"/>
<path opacity="0.5" d="M313.704 -3.08794C301.591 -3.93367 273.749 -0.133445 259.291 21.8333C241.219 49.2916 260.634 75.7018 250.125 103.57C242.368 124.139 207.494 171.017 157.604 180.13" stroke="#D2D2D2" stroke-width="2"/>
<path opacity="0.5" d="M296.054 -6.40093C283.94 -7.24665 256.098 -3.44643 241.641 18.5203C223.568 45.9786 242.983 72.3888 232.474 100.257C224.718 120.826 189.844 167.704 139.954 176.817" stroke="#D2D2D2" stroke-width="2"/>
<path opacity="0.5" d="M278.112 -8.98686C265.999 -9.83263 238.157 -6.03238 223.699 15.9343C205.627 43.3927 225.042 69.8028 214.533 97.6711C206.776 118.24 171.902 165.118 122.013 174.23" stroke="#D2D2D2" stroke-width="2"/>
<path opacity="0.5" d="M259.964 -10.8775C247.85 -11.7232 220.009 -7.92297 205.551 14.0438C187.478 41.5021 206.894 67.9123 196.385 95.7805C188.628 116.349 153.754 163.227 103.864 172.34" stroke="#D2D2D2" stroke-width="2"/>
<path opacity="0.5" d="M241.681 -12.0923C229.567 -12.938 201.725 -9.13781 187.268 12.8289C169.195 40.2873 188.61 66.6974 178.101 94.5656C170.345 115.134 135.471 162.012 85.5811 171.126" stroke="#D2D2D2" stroke-width="2"/>
</g>
<defs>
<linearGradient id="paint0_linear" x1="165.5" y1="0" x2="165.5" y2="171" gradientUnits="userSpaceOnUse">
<stop stop-color="#FF6359"/>
<stop offset="1" stop-color="#E20D00"/>
</linearGradient>
</defs>
</svg>
