<svg width="331" height="200" viewBox="0 0 331 200" fill="none" xmlns="http://www.w3.org/2000/svg">
<g clip-path="url(#clip0)">
<mask id="mask0" style="mask-type:alpha" maskUnits="userSpaceOnUse" x="0" y="0" width="331" height="201">
<path d="M326 0H5C2.23858 0 0 2.23858 0 5V195C0 197.762 2.23858 200 5 200H326C328.761 200 331 197.762 331 195V5C331 2.23858 328.761 0 326 0Z" fill="url(#paint0_linear)"/>
</mask>
<g mask="url(#mask0)">
<g opacity="0.4">
<path opacity="0.5" d="M480.402 83.1544C468.288 82.1604 440.447 86.6274 425.989 112.448C407.916 144.725 427.332 175.769 416.823 208.528C409.066 232.706 374.192 287.809 324.302 298.521" stroke="#D2D2D2" stroke-width="2"/>
<path opacity="0.5" d="M463.945 76.943C451.832 75.9489 423.99 80.4159 409.532 106.238C391.46 138.514 410.875 169.558 400.366 202.316C392.609 226.494 357.735 281.597 307.846 292.31" stroke="#D2D2D2" stroke-width="2"/>
<path opacity="0.5" d="M448.478 69.4118C436.364 68.4177 408.523 72.8847 394.065 98.7059C375.992 130.982 395.408 162.027 384.898 194.784C377.142 218.963 342.268 274.067 292.378 284.778" stroke="#D2D2D2" stroke-width="2"/>
<path opacity="0.5" d="M434.421 60.4347C422.307 59.4406 394.465 63.9076 380.008 89.729C361.935 122.005 381.35 153.05 370.841 185.807C363.085 209.985 328.211 265.09 278.321 275.801" stroke="#D2D2D2" stroke-width="2"/>
<path opacity="0.5" d="M420.057 48.1076C407.944 47.1134 380.102 51.5804 365.644 77.4015C347.572 109.678 366.987 140.722 356.478 173.481C348.721 197.659 313.847 252.762 263.957 263.474" stroke="#D2D2D2" stroke-width="2"/>
<path opacity="0.5" d="M407.523 37.9128C395.409 36.9186 367.567 41.3857 353.11 67.2068C335.037 99.4836 354.452 130.528 343.943 163.286C336.187 187.464 301.313 242.567 251.423 253.28" stroke="#D2D2D2" stroke-width="2"/>
<path opacity="0.5" d="M393.923 28.5402C381.809 27.5461 353.967 32.0131 339.509 57.8342C321.437 90.1107 340.852 121.155 330.343 153.913C322.587 178.092 287.713 233.195 237.823 243.907" stroke="#D2D2D2" stroke-width="2"/>
<path opacity="0.5" d="M379.349 20.0465C367.236 19.0525 339.394 23.5195 324.936 49.3406C306.864 81.6171 326.279 112.661 315.77 145.419C308.014 169.597 273.14 224.702 223.25 235.413" stroke="#D2D2D2" stroke-width="2"/>
<path opacity="0.5" d="M363.916 12.4757C351.803 11.4817 323.961 15.9487 309.503 41.7698C291.431 74.0463 310.846 105.091 300.337 137.849C292.58 162.027 257.706 217.13 207.817 227.843" stroke="#D2D2D2" stroke-width="2"/>
<path opacity="0.5" d="M347.748 5.8434C335.635 4.84933 307.793 9.31636 293.335 35.1375C275.263 67.4138 294.678 98.4587 284.169 131.216C276.412 155.394 241.538 210.498 191.648 221.21" stroke="#D2D2D2" stroke-width="2"/>
<path opacity="0.5" d="M330.973 0.146155C318.859 -0.848016 291.017 3.61902 276.559 29.4401C258.487 61.7166 277.902 92.7608 267.393 125.519C259.637 149.698 224.763 204.801 174.873 215.513" stroke="#D2D2D2" stroke-width="2"/>
<path opacity="0.5" d="M313.704 -4.63462C301.591 -5.62874 273.749 -1.1617 259.291 24.6594C241.219 56.9359 260.634 87.9801 250.125 120.739C242.368 144.917 207.495 200.02 157.605 210.732" stroke="#D2D2D2" stroke-width="2"/>
<path opacity="0.5" d="M296.054 -8.52817C283.94 -9.5223 256.098 -5.05526 241.641 20.7659C223.568 53.0423 242.983 84.0866 232.474 116.845C224.718 141.023 189.844 196.126 139.954 206.839" stroke="#D2D2D2" stroke-width="2"/>
<path opacity="0.5" d="M278.112 -11.5692C265.999 -12.5633 238.157 -8.09627 223.699 17.7249C205.627 50.0012 225.042 81.0456 214.533 113.804C206.776 137.982 171.902 193.085 122.013 203.797" stroke="#D2D2D2" stroke-width="2"/>
<path opacity="0.5" d="M259.964 -13.7909C247.85 -14.785 220.009 -10.318 205.551 15.5032C187.478 47.7796 206.894 78.8239 196.385 111.582C188.628 135.76 153.754 190.864 103.864 201.575" stroke="#D2D2D2" stroke-width="2"/>
<path opacity="0.5" d="M241.681 -15.2191C229.567 -16.2132 201.726 -11.7462 187.268 14.075C169.195 46.3514 188.611 77.3957 178.102 110.154C170.345 134.332 135.471 189.435 85.5813 200.148" stroke="#D2D2D2" stroke-width="2"/>
</g>
</g>
</g>
<defs>
<linearGradient id="paint0_linear" x1="165.5" y1="0" x2="165.5" y2="200" gradientUnits="userSpaceOnUse">
<stop stop-color="#FF6359"/>
<stop offset="1" stop-color="#E20D00"/>
</linearGradient>
<clipPath id="clip0">
<rect width="331" height="200" fill="white"/>
</clipPath>
</defs>
</svg>
