<svg width="341" height="191" viewBox="0 0 341 191" fill="none" xmlns="http://www.w3.org/2000/svg">
<mask id="mask0" style="mask-type:alpha" maskUnits="userSpaceOnUse" x="0" y="10" width="331" height="171">
<rect y="10" width="331" height="171" rx="5" fill="url(#paint0_linear)"/>
</mask>
<g mask="url(#mask0)">
<g opacity="0.4">
<path opacity="0.5" d="M459.633 80.577C450.134 79.5485 428.302 84.1703 416.965 110.886C402.794 144.281 418.018 176.401 409.777 210.295C403.695 235.31 376.349 292.324 337.228 303.407" stroke="#D2D2D2" stroke-width="2"/>
<path opacity="0.5" d="M445.605 77.2592C436.106 76.2306 414.274 80.8524 402.937 107.568C388.765 140.963 403.99 173.083 395.749 206.977C389.667 231.993 362.321 289.006 323.2 300.089" stroke="#D2D2D2" stroke-width="2"/>
<path opacity="0.5" d="M431.816 73.058C422.317 72.0294 400.485 76.6512 389.148 103.367C374.976 136.762 390.201 168.882 381.96 202.776C375.878 227.791 348.531 284.805 309.41 295.888" stroke="#D2D2D2" stroke-width="2"/>
<path opacity="0.5" d="M418.383 67.8256C408.884 66.797 387.052 71.4188 375.715 98.1347C361.544 131.53 376.768 163.65 368.527 197.543C362.445 222.559 335.099 279.572 295.978 290.655" stroke="#D2D2D2" stroke-width="2"/>
<path opacity="0.5" d="M405.479 61.3983C395.98 60.3697 374.148 64.9916 362.811 91.7075C348.639 125.102 363.864 157.222 355.623 191.116C349.541 216.132 322.195 273.145 283.074 284.228" stroke="#D2D2D2" stroke-width="2"/>
<path opacity="0.5" d="M393.35 53.6068C383.851 52.5782 362.019 57.2001 350.682 83.916C336.511 117.311 351.735 149.431 343.494 183.324C337.412 208.34 310.066 265.353 270.945 276.436" stroke="#D2D2D2" stroke-width="2"/>
<path opacity="0.5" d="M382.327 44.3182C372.829 43.2897 350.997 47.9115 339.659 74.6274C325.488 108.022 340.712 140.142 332.472 174.036C326.389 199.052 299.043 256.065 259.922 267.148" stroke="#D2D2D2" stroke-width="2"/>
<path opacity="0.5" d="M371.064 31.5634C361.565 30.5348 339.733 35.1566 328.396 61.8725C314.224 95.2674 329.449 127.387 321.208 161.281C315.126 186.297 287.779 243.31 248.659 254.393" stroke="#D2D2D2" stroke-width="2"/>
<path opacity="0.5" d="M361.236 21.0165C351.737 19.9879 329.905 24.6097 318.568 51.3257C304.396 84.7206 319.621 116.841 311.38 150.734C305.298 175.75 277.951 232.763 238.83 243.846" stroke="#D2D2D2" stroke-width="2"/>
<path opacity="0.5" d="M350.571 11.3182C341.072 10.2897 319.24 14.9115 307.903 41.6274C293.731 75.0223 308.956 107.142 300.715 141.036C294.633 166.052 267.286 223.065 228.165 234.148" stroke="#D2D2D2" stroke-width="2"/>
<path opacity="0.5" d="M339.143 2.53113C329.644 1.50255 307.812 6.12439 296.475 32.8403C282.303 66.2352 297.528 98.3553 289.287 132.249C283.205 157.265 255.859 214.278 216.738 225.361" stroke="#D2D2D2" stroke-width="2"/>
<path opacity="0.5" d="M327.041 -5.30237C317.542 -6.33094 295.71 -1.70911 284.373 25.0068C270.202 58.4017 285.426 90.5218 277.186 124.415C271.103 149.431 243.757 206.444 204.636 217.527" stroke="#D2D2D2" stroke-width="2"/>
<path opacity="0.5" d="M314.364 -12.1647C304.865 -13.1932 283.033 -8.57141 271.696 18.1445C257.524 51.5394 272.749 83.6595 264.508 117.553C258.426 142.569 231.079 199.582 191.958 210.665" stroke="#D2D2D2" stroke-width="2"/>
<path opacity="0.5" d="M301.208 -18.0592C291.709 -19.0878 269.877 -14.4659 258.54 12.25C244.369 45.6449 259.593 77.7649 251.353 111.658C245.27 136.674 217.924 193.687 178.803 204.77" stroke="#D2D2D2" stroke-width="2"/>
<path opacity="0.5" d="M287.668 -23.005C278.169 -24.0336 256.337 -19.4117 245 7.30417C230.829 40.6991 246.053 72.8191 237.813 106.713C231.73 131.728 204.384 188.742 165.263 199.825" stroke="#D2D2D2" stroke-width="2"/>
<path opacity="0.5" d="M273.827 -27.0343C264.329 -28.0629 242.497 -23.441 231.159 3.27488C216.988 36.6698 232.212 68.7898 223.972 102.683C217.889 127.699 190.543 184.712 151.422 195.795" stroke="#D2D2D2" stroke-width="2"/>
<path opacity="0.5" d="M259.758 -30.1803C250.259 -31.2089 228.427 -26.587 217.09 0.128881C202.919 33.5238 218.143 65.6438 209.902 99.5372C203.82 124.553 176.474 181.566 137.353 192.649" stroke="#D2D2D2" stroke-width="2"/>
<path opacity="0.5" d="M245.528 -32.4791C236.029 -33.5077 214.197 -28.8859 202.86 -2.16995C188.688 31.225 203.913 63.345 195.672 97.2384C189.59 122.254 162.243 179.267 123.122 190.351" stroke="#D2D2D2" stroke-width="2"/>
<path opacity="0.5" d="M231.191 -33.9562C221.692 -34.9847 199.86 -30.3629 188.523 -3.647C174.351 29.7479 189.576 61.868 181.335 95.7614C175.253 120.777 147.906 177.79 108.785 188.873" stroke="#D2D2D2" stroke-width="2"/>
</g>
</g>
<defs>
<linearGradient id="paint0_linear" x1="165.5" y1="10" x2="165.5" y2="181" gradientUnits="userSpaceOnUse">
<stop stop-color="#FF6359"/>
<stop offset="1" stop-color="#E20D00"/>
</linearGradient>
</defs>
</svg>
