<svg width="375" height="812" viewBox="0 0 375 812" fill="none" xmlns="http://www.w3.org/2000/svg">
<g clip-path="url(#clip0)">
<g opacity="0.5">
<path opacity="0.5" d="M490.429 844.714C479.365 825.75 443.985 789.111 390.979 794.271C324.722 800.721 299.054 861.425 239.909 879.572C196.255 892.966 78.9797 898.024 11.5928 835.156" stroke="#F5F4F2" stroke-width="2"/>
<path opacity="0.5" d="M469.281 819.223C458.217 800.259 422.837 763.62 369.831 768.78C303.574 775.23 277.905 835.934 218.76 854.081C175.107 867.475 57.8313 872.533 -9.55564 809.665" stroke="#F5F4F2" stroke-width="2"/>
<path opacity="0.5" d="M448.603 793.302C437.539 774.337 402.159 737.698 349.153 742.858C282.895 749.308 257.227 810.012 198.082 828.16C154.429 841.554 37.1531 846.611 -30.2339 783.744" stroke="#F5F4F2" stroke-width="2"/>
<path opacity="0.5" d="M428.4 766.972C417.336 748.007 381.957 711.368 328.951 716.528C262.693 722.978 237.025 783.682 177.88 801.83C134.227 815.224 16.9509 820.281 -50.436 757.413" stroke="#F5F4F2" stroke-width="2"/>
<path opacity="0.5" d="M408.701 740.247C397.637 721.282 362.257 684.643 309.251 689.803C242.994 696.253 217.326 756.957 158.181 775.104C114.527 788.499 -2.74832 793.556 -70.1352 730.688" stroke="#F5F4F2" stroke-width="2"/>
<path opacity="0.5" d="M389.551 713.117C378.487 694.153 343.107 657.514 290.101 662.674C223.844 669.123 198.175 729.828 139.03 747.975C95.3769 761.369 -21.8987 766.426 -89.2856 703.559" stroke="#F5F4F2" stroke-width="2"/>
<path opacity="0.5" d="M371.006 685.568C359.942 666.603 324.562 629.964 271.556 635.124C205.299 641.574 179.63 702.278 120.485 720.426C76.832 733.82 -40.4436 738.877 -107.831 676.01" stroke="#F5F4F2" stroke-width="2"/>
<path opacity="0.5" d="M353.144 657.594C342.08 638.629 306.7 601.99 253.694 607.15C187.437 613.6 161.768 674.304 102.624 692.452C58.9702 705.846 -58.3054 710.903 -125.692 648.036" stroke="#F5F4F2" stroke-width="2"/>
<path opacity="0.5" d="M336.071 629.176C325.007 610.212 289.628 573.573 236.622 578.733C170.364 585.183 144.696 645.887 85.5508 664.034C41.8974 677.429 -75.3782 682.486 -142.765 619.618" stroke="#F5F4F2" stroke-width="2"/>
<path opacity="0.5" d="M319.917 600.305C308.852 581.341 273.473 544.702 220.467 549.862C154.209 556.312 128.541 617.016 69.396 635.163C25.7426 648.557 -91.533 653.615 -158.92 590.747" stroke="#F5F4F2" stroke-width="2"/>
<path opacity="0.5" d="M304.84 570.968C293.776 552.003 258.397 515.364 205.391 520.524C139.133 526.974 113.465 587.678 54.3198 605.826C10.6665 619.22 -106.609 624.277 -173.996 561.41" stroke="#F5F4F2" stroke-width="2"/>
<path opacity="0.5" d="M291.062 541.169C279.998 522.204 244.618 485.565 191.612 490.725C125.354 497.175 99.686 557.879 40.541 576.027C-3.11233 589.421 -120.388 594.478 -187.775 531.61" stroke="#F5F4F2" stroke-width="2"/>
<path opacity="0.5" d="M278.859 510.945C267.795 491.981 232.416 455.342 179.41 460.501C113.152 466.951 87.4838 527.655 28.3389 545.803C-15.3145 559.197 -132.59 564.254 -199.977 501.387" stroke="#F5F4F2" stroke-width="2"/>
<path opacity="0.5" d="M268.594 480.371C257.53 461.406 222.151 424.767 169.145 429.927C102.887 436.377 77.2187 497.081 18.0738 515.228C-25.5796 528.623 -142.855 533.68 -210.242 470.812" stroke="#F5F4F2" stroke-width="2"/>
<path opacity="0.5" d="M260.727 449.604C249.663 430.639 214.283 394.001 161.277 399.16C95.0194 405.61 69.351 466.314 10.2061 484.462C-33.4473 497.856 -150.723 502.913 -218.11 440.046" stroke="#F5F4F2" stroke-width="2"/>
<path opacity="0.5" d="M255.828 418.945C244.764 399.98 209.384 363.341 156.378 368.501C90.1209 374.951 64.4526 435.655 5.30764 453.803C-38.3457 467.197 -155.621 472.254 -223.008 409.387" stroke="#F5F4F2" stroke-width="2"/>
<path opacity="0.5" d="M254.518 388.886C243.454 369.922 208.074 333.283 155.068 338.443C88.8104 344.893 63.142 405.597 3.99709 423.744C-39.6563 437.139 -156.932 442.196 -224.319 379.328" stroke="#F5F4F2" stroke-width="2"/>
<path opacity="0.5" d="M257.829 354.926C246.765 335.962 211.385 299.323 158.379 304.482C92.1214 310.932 66.453 371.636 7.30813 389.784C-36.3452 403.178 -153.621 408.235 -221.008 345.368" stroke="#F5F4F2" stroke-width="2"/>
<path opacity="0.5" d="M259.887 325.87C248.823 306.906 213.443 270.267 160.438 275.426C94.18 281.876 68.5116 342.581 9.36672 360.728C-34.2866 374.122 -151.562 379.179 -218.949 316.312" stroke="#F5F4F2" stroke-width="2"/>
<path opacity="0.5" d="M259.633 296.081C248.569 277.117 213.189 240.478 160.183 245.638C93.9256 252.088 68.2572 312.792 9.11232 330.939C-34.541 344.334 -151.817 349.391 -219.204 286.523" stroke="#F5F4F2" stroke-width="2"/>
<path opacity="0.5" d="M257.076 265.756C246.012 246.792 210.632 210.153 157.626 215.313C91.369 221.763 65.7006 282.467 6.55568 300.614C-37.0977 314.008 -154.373 319.066 -221.76 256.198" stroke="#F5F4F2" stroke-width="2"/>
<path opacity="0.5" d="M252.271 235.107C241.207 216.143 205.827 179.504 152.821 184.664C86.5638 191.113 60.8954 251.818 1.75051 269.965C-41.9029 283.359 -159.178 288.416 -226.565 225.549" stroke="#F5F4F2" stroke-width="2"/>
<path opacity="0.5" d="M245.323 204.335C234.259 185.37 198.88 148.731 145.874 153.891C79.616 160.341 53.9477 221.045 -5.19725 239.193C-48.8506 252.587 -166.126 257.644 -233.513 194.777" stroke="#F5F4F2" stroke-width="2"/>
<path opacity="0.5" d="M236.367 173.625C225.303 154.661 189.923 118.022 136.917 123.182C70.66 129.632 44.9916 190.336 -14.1533 208.483C-57.8067 221.878 -175.082 226.935 -242.469 164.067" stroke="#F5F4F2" stroke-width="2"/>
<path opacity="0.5" d="M225.552 143.13C214.488 124.166 179.109 87.5269 126.103 92.6867C59.845 99.1365 34.1767 159.841 -24.9682 177.988C-68.6216 191.382 -185.897 196.44 -253.284 133.572" stroke="#F5F4F2" stroke-width="2"/>
<path opacity="0.5" d="M213.035 112.98C201.971 94.016 166.591 57.377 113.585 62.5368C47.3275 68.9866 21.6591 129.691 -37.4858 147.838C-81.1392 161.233 -198.415 166.29 -265.802 103.422" stroke="#F5F4F2" stroke-width="2"/>
<path opacity="0.5" d="M198.959 83.279C187.894 64.3145 152.515 27.6756 99.5088 32.8354C33.2513 39.2852 7.58293 99.9895 -51.562 118.137C-95.2154 131.531 -212.491 136.588 -279.878 73.7208" stroke="#F5F4F2" stroke-width="2"/>
<path opacity="0.5" d="M183.462 54.1123C172.398 35.1478 137.019 -1.49119 84.0127 3.66867C17.7552 10.1185 -7.91317 70.8227 -67.0581 88.9702C-110.711 102.364 -227.987 107.422 -295.374 44.5541" stroke="#F5F4F2" stroke-width="2"/>
<path opacity="0.5" d="M166.656 25.5639C155.592 6.59945 120.213 -30.0395 67.2065 -24.8797C0.94905 -18.4299 -24.7193 42.2744 -83.8642 60.4218C-127.518 73.816 -244.793 78.8732 -312.18 16.0058" stroke="#F5F4F2" stroke-width="2"/>
</g>
<circle opacity="0.1" cx="147.5" cy="474.5" r="5.5" fill="#EB473D"/>
</g>
<defs>
<clipPath id="clip0">
<rect width="375" height="812" fill="white"/>
</clipPath>
</defs>
</svg>
