<svg width="1920" height="1080" viewBox="0 0 1920 1080" fill="none" xmlns="http://www.w3.org/2000/svg">
<g clip-path="url(#clip0)">
<g opacity="0.4">
<path opacity="0.5" d="M1328.13 1225.01C1299.05 1175.16 1206.06 1078.86 1066.73 1092.42C892.572 1109.37 825.103 1268.93 669.641 1316.63C554.898 1351.84 246.639 1365.13 69.5131 1199.89" stroke="url(#paint0_linear)" stroke-width="2"/>
<path opacity="0.5" d="M1281.18 1151.48C1252.1 1101.63 1159.11 1005.33 1019.78 1018.89C845.622 1035.84 778.153 1195.4 622.69 1243.1C507.948 1278.31 199.689 1291.6 22.5629 1126.36" stroke="url(#paint1_linear)" stroke-width="2"/>
<path opacity="0.5" d="M1236.31 1076.78C1207.23 1026.94 1114.23 930.631 974.904 944.194C800.747 961.147 733.278 1120.71 577.815 1168.41C463.073 1203.61 154.814 1216.91 -22.3121 1051.66" stroke="url(#paint2_linear)" stroke-width="2"/>
<path opacity="0.5" d="M1193.84 1000.9C1164.76 951.049 1071.77 854.744 932.441 868.306C758.284 885.26 690.815 1044.82 535.352 1092.52C420.61 1127.73 112.351 1141.02 -64.775 975.774" stroke="url(#paint3_linear)" stroke-width="2"/>
<path opacity="0.5" d="M1154.22 923.783C1125.13 873.935 1032.14 777.629 892.814 791.192C718.656 808.145 651.187 967.706 495.725 1015.41C380.982 1050.61 72.7233 1063.91 -104.403 898.659" stroke="url(#paint4_linear)" stroke-width="2"/>
<path opacity="0.5" d="M1118 845.456C1088.92 795.608 995.922 699.303 856.596 712.866C682.438 729.819 614.969 889.38 459.507 937.08C344.764 972.287 36.5055 985.58 -140.621 820.333" stroke="url(#paint5_linear)" stroke-width="2"/>
<path opacity="0.5" d="M1085.93 766.014C1056.84 716.166 963.849 619.86 824.523 633.423C650.365 650.376 582.896 809.937 427.434 857.638C312.691 892.844 4.43228 906.137 -172.694 740.89" stroke="url(#paint6_linear)" stroke-width="2"/>
<path opacity="0.5" d="M1058.94 685.65C1029.86 635.802 936.867 539.496 797.541 553.059C623.383 570.012 555.914 729.573 400.452 777.273C285.709 812.48 -22.5492 825.773 -199.675 660.526" stroke="url(#paint7_linear)" stroke-width="2"/>
<path opacity="0.5" d="M1038.26 604.778C1009.18 554.93 916.186 458.625 776.86 472.188C602.703 489.141 535.234 648.702 379.771 696.402C265.029 731.609 -43.2298 744.902 -220.356 579.655" stroke="url(#paint8_linear)" stroke-width="2"/>
<path opacity="0.5" d="M1025.39 524.191C996.307 474.343 903.311 378.037 763.985 391.6C589.828 408.553 522.359 568.114 366.896 615.815C252.154 651.021 -56.1048 664.314 -233.231 499.067" stroke="url(#paint9_linear)" stroke-width="2"/>
<path opacity="0.5" d="M1021.94 445.183C992.862 395.335 899.866 299.03 760.54 312.592C586.383 329.546 518.913 489.107 363.451 536.807C248.708 572.014 -59.5501 585.307 -236.676 420.06" stroke="url(#paint10_linear)" stroke-width="2"/>
<path opacity="0.5" d="M1030.65 355.918C1001.56 306.07 908.569 209.765 769.243 223.328C595.086 240.281 527.616 399.842 372.154 447.542C257.412 482.749 -50.847 496.042 -227.973 330.795" stroke="url(#paint11_linear)" stroke-width="2"/>
<path opacity="0.5" d="M1036.06 279.544C1006.98 229.696 913.98 133.391 774.654 146.954C600.497 163.907 533.028 323.468 377.565 371.168C262.823 406.375 -45.4359 419.668 -222.562 254.421" stroke="url(#paint12_linear)" stroke-width="2"/>
<path opacity="0.5" d="M1035.39 201.246C1006.31 151.398 913.312 55.093 773.986 68.6557C599.829 85.609 532.36 245.17 376.897 292.87C262.155 328.077 -46.1039 341.37 -223.23 176.123" stroke="url(#paint13_linear)" stroke-width="2"/>
<path opacity="0.5" d="M1028.67 121.536C999.587 71.6875 906.592 -24.6179 767.266 -11.0552C593.108 5.89807 525.639 165.459 370.177 213.159C255.434 248.366 -52.8246 261.659 -229.951 96.4119" stroke="url(#paint14_linear)" stroke-width="2"/>
<path opacity="0.5" d="M1016.04 40.975C986.957 -8.87305 893.962 -105.178 754.636 -91.6158C580.478 -74.6625 513.009 84.8984 357.547 132.599C242.804 167.805 -65.4544 181.098 -242.581 15.8514" stroke="url(#paint15_linear)" stroke-width="2"/>
<path opacity="0.5" d="M997.776 -39.9104C968.695 -89.7584 875.699 -186.064 736.373 -172.501C562.216 -155.548 494.746 4.01301 339.284 51.7135C224.541 86.92 -83.7171 100.213 -260.843 -65.034" stroke="url(#paint16_linear)" stroke-width="2"/>
<path opacity="0.5" d="M974.235 -120.63C945.154 -170.478 852.158 -266.784 712.832 -253.221C538.675 -236.268 471.205 -76.7067 315.743 -29.0062C201 6.20032 -107.258 19.4932 -284.384 -145.754" stroke="url(#paint17_linear)" stroke-width="2"/>
</g>
</g>
<defs>
<linearGradient id="paint0_linear" x1="1317.2" y1="1185.8" x2="155.812" y2="1509.51" gradientUnits="userSpaceOnUse">
<stop stop-color="#FF6359"/>
<stop offset="1" stop-color="#E20D00"/>
</linearGradient>
<linearGradient id="paint1_linear" x1="1270.25" y1="1112.27" x2="108.861" y2="1435.98" gradientUnits="userSpaceOnUse">
<stop stop-color="#FF6359"/>
<stop offset="1" stop-color="#E20D00"/>
</linearGradient>
<linearGradient id="paint2_linear" x1="1225.38" y1="1037.58" x2="63.9864" y2="1361.28" gradientUnits="userSpaceOnUse">
<stop stop-color="#FF6359"/>
<stop offset="1" stop-color="#E20D00"/>
</linearGradient>
<linearGradient id="paint3_linear" x1="1182.92" y1="961.689" x2="21.5235" y2="1285.39" gradientUnits="userSpaceOnUse">
<stop stop-color="#FF6359"/>
<stop offset="1" stop-color="#E20D00"/>
</linearGradient>
<linearGradient id="paint4_linear" x1="1143.29" y1="884.574" x2="-18.1044" y2="1208.28" gradientUnits="userSpaceOnUse">
<stop stop-color="#FF6359"/>
<stop offset="1" stop-color="#E20D00"/>
</linearGradient>
<linearGradient id="paint5_linear" x1="1107.07" y1="806.248" x2="-54.3222" y2="1129.95" gradientUnits="userSpaceOnUse">
<stop stop-color="#FF6359"/>
<stop offset="1" stop-color="#E20D00"/>
</linearGradient>
<linearGradient id="paint6_linear" x1="1075" y1="726.805" x2="-86.3955" y2="1050.51" gradientUnits="userSpaceOnUse">
<stop stop-color="#FF6359"/>
<stop offset="1" stop-color="#E20D00"/>
</linearGradient>
<linearGradient id="paint7_linear" x1="1048.02" y1="646.441" x2="-113.377" y2="970.147" gradientUnits="userSpaceOnUse">
<stop stop-color="#FF6359"/>
<stop offset="1" stop-color="#E20D00"/>
</linearGradient>
<linearGradient id="paint8_linear" x1="1027.34" y1="565.57" x2="-134.058" y2="889.276" gradientUnits="userSpaceOnUse">
<stop stop-color="#FF6359"/>
<stop offset="1" stop-color="#E20D00"/>
</linearGradient>
<linearGradient id="paint9_linear" x1="1014.46" y1="484.982" x2="-146.933" y2="808.689" gradientUnits="userSpaceOnUse">
<stop stop-color="#FF6359"/>
<stop offset="1" stop-color="#E20D00"/>
</linearGradient>
<linearGradient id="paint10_linear" x1="1011.02" y1="405.975" x2="-150.378" y2="729.681" gradientUnits="userSpaceOnUse">
<stop stop-color="#FF6359"/>
<stop offset="1" stop-color="#E20D00"/>
</linearGradient>
<linearGradient id="paint11_linear" x1="1019.72" y1="316.71" x2="-141.675" y2="640.416" gradientUnits="userSpaceOnUse">
<stop stop-color="#FF6359"/>
<stop offset="1" stop-color="#E20D00"/>
</linearGradient>
<linearGradient id="paint12_linear" x1="1025.13" y1="240.336" x2="-136.264" y2="564.042" gradientUnits="userSpaceOnUse">
<stop stop-color="#FF6359"/>
<stop offset="1" stop-color="#E20D00"/>
</linearGradient>
<linearGradient id="paint13_linear" x1="1024.46" y1="162.038" x2="-136.932" y2="485.744" gradientUnits="userSpaceOnUse">
<stop stop-color="#FF6359"/>
<stop offset="1" stop-color="#E20D00"/>
</linearGradient>
<linearGradient id="paint14_linear" x1="1017.74" y1="82.3271" x2="-143.652" y2="406.033" gradientUnits="userSpaceOnUse">
<stop stop-color="#FF6359"/>
<stop offset="1" stop-color="#E20D00"/>
</linearGradient>
<linearGradient id="paint15_linear" x1="1005.11" y1="1.76654" x2="-156.282" y2="325.473" gradientUnits="userSpaceOnUse">
<stop stop-color="#FF6359"/>
<stop offset="1" stop-color="#E20D00"/>
</linearGradient>
<linearGradient id="paint16_linear" x1="986.848" y1="-79.1188" x2="-174.545" y2="244.587" gradientUnits="userSpaceOnUse">
<stop stop-color="#FF6359"/>
<stop offset="1" stop-color="#E20D00"/>
</linearGradient>
<linearGradient id="paint17_linear" x1="963.307" y1="-159.839" x2="-198.086" y2="163.868" gradientUnits="userSpaceOnUse">
<stop stop-color="#FF6359"/>
<stop offset="1" stop-color="#E20D00"/>
</linearGradient>
<clipPath id="clip0">
<rect width="1920" height="1080" fill="white"/>
</clipPath>
</defs>
</svg>
