<svg width="16" height="10" viewBox="0 0 16 10" fill="none" xmlns="http://www.w3.org/2000/svg">
<path d="M15.6933 1.97652C15.8918 1.76125 16 1.48728 16 1.16438C16 0.51859 15.531 -6.78882e-07 14.9357 -6.52862e-07C14.6381 -6.39852e-07 14.3675 0.136985 14.1601 0.362034L7.99098 7.21135L1.83991 0.362035C1.63247 0.136986 1.35287 -5.9136e-08 1.06426 -4.65204e-08C0.468996 -2.05005e-08 -4.14446e-07 0.518591 -3.86217e-07 1.16438C-3.72103e-07 1.48728 0.10823 1.76125 0.306651 1.97652L7.16122 9.58904C7.39572 9.86301 7.68433 9.99021 8 10C8.31567 10 8.58625 9.86301 8.82976 9.58904L15.6933 1.97652Z" fill="#EB473D"/>
</svg>
