<svg width="10" height="16" viewBox="0 0 10 16" fill="none" xmlns="http://www.w3.org/2000/svg">
<path d="M1.82181 0.306651C1.62339 0.10823 1.37085 0 1.07322 0C0.477957 0 -5.81741e-05 0.468996 -5.81741e-05 1.06426C-5.81741e-05 1.36189 0.12621 1.63247 0.333651 1.83991L6.64707 8.00902L0.333651 14.1601C0.12621 14.3675 -5.81741e-05 14.6471 -5.81741e-05 14.9357C-5.81741e-05 15.531 0.477957 16 1.07322 16C1.37085 16 1.62339 15.8918 1.82181 15.6933L8.83872 8.83878C9.09126 8.60428 9.20851 8.31567 9.21753 8C9.21753 7.68433 9.09126 7.41375 8.83872 7.17024L1.82181 0.306651Z" fill="#EB473D"/>
</svg>
