<svg width="20" height="22" viewBox="0 0 20 22" fill="none" xmlns="http://www.w3.org/2000/svg">
<path d="M17.3537 4.3892L10.5644 1.47946C10.1241 1.2908 9.62585 1.2908 9.18564 1.47946L2.39626 4.3892C1.67943 4.69641 1.2524 5.4409 1.34913 6.21476L2.08712 12.1186C2.29941 13.817 3.14892 15.3712 4.46375 16.4669L8.75468 20.0427C9.40366 20.5835 10.3463 20.5835 10.9953 20.0427L15.2862 16.4669C16.6011 15.3712 17.4506 13.817 17.6629 12.1186L18.4009 6.21476C18.4976 5.4409 18.0706 4.69641 17.3537 4.3892Z" stroke="#EB473D" stroke-width="1.5" stroke-linecap="round"/>
<path d="M6.5 11L9.44374 13.9437C9.66684 14.1668 10.0383 14.1301 10.2133 13.8675L14.375 7.625" stroke="#EB473D" stroke-width="1.5" stroke-linecap="round"/>
</svg>
