<svg width="20" height="24" viewBox="0 0 20 24" fill="none" xmlns="http://www.w3.org/2000/svg">
<path d="M17.625 3H13.5V2.25C13.5 1.00936 12.4906 0 11.25 0H8.25C7.00936 0 6 1.00936 6 2.25V3H1.875C0.841125 3 0 3.84113 0 4.875V7.5C0 7.91419 0.335812 8.25 0.75 8.25H1.15988L1.80783 21.857C1.86506 23.0587 2.85225 24 4.05525 24H15.4447C16.6478 24 17.635 23.0587 17.6922 21.857L18.3401 8.25H18.75C19.1642 8.25 19.5 7.91419 19.5 7.5V4.875C19.5 3.84113 18.6589 3 17.625 3ZM7.5 2.25C7.5 1.83647 7.83647 1.5 8.25 1.5H11.25C11.6635 1.5 12 1.83647 12 2.25V3H7.5V2.25ZM1.5 4.875C1.5 4.66823 1.66823 4.5 1.875 4.5H17.625C17.8318 4.5 18 4.66823 18 4.875V6.75C17.7689 6.75 2.4578 6.75 1.5 6.75V4.875ZM16.1939 21.7857C16.1748 22.1862 15.8457 22.5 15.4447 22.5H4.05525C3.65423 22.5 3.32517 22.1862 3.30614 21.7857L2.66156 8.25H16.8384L16.1939 21.7857Z" fill="#353535"/>
<path d="M9.75018 21C10.1644 21 10.5002 20.6642 10.5002 20.25V10.5C10.5002 10.0858 10.1644 9.75 9.75018 9.75C9.336 9.75 9.00018 10.0858 9.00018 10.5V20.25C9.00018 20.6642 9.33595 21 9.75018 21Z" fill="#353535"/>
<path d="M13.5001 21C13.9142 21 14.2501 20.6642 14.2501 20.25V10.5C14.2501 10.0858 13.9142 9.75 13.5001 9.75C13.0859 9.75 12.7501 10.0858 12.7501 10.5V20.25C12.7501 20.6642 13.0858 21 13.5001 21Z" fill="#353535"/>
<path d="M5.99991 21C6.4141 21 6.74991 20.6642 6.74991 20.25V10.5C6.74991 10.0858 6.4141 9.75 5.99991 9.75C5.58572 9.75 5.24991 10.0858 5.24991 10.5V20.25C5.24991 20.6642 5.58567 21 5.99991 21Z" fill="#353535"/>
</svg>
