<svg width="20" height="20" viewBox="0 0 20 20" fill="none" xmlns="http://www.w3.org/2000/svg">
<path d="M9.99998 12.5715L9.46965 13.1019L9.99998 13.6322L10.5303 13.1019L9.99998 12.5715ZM10.75 1.00011C10.75 0.585893 10.4142 0.250106 9.99998 0.250106C9.58577 0.250106 9.24998 0.585893 9.24998 1.00011L10.75 1.00011ZM3.04108 6.67329L9.46965 13.1019L10.5303 12.0412L4.10174 5.61263L3.04108 6.67329ZM10.5303 13.1019L16.9589 6.67329L15.8982 5.61263L9.46965 12.0412L10.5303 13.1019ZM10.75 12.5715L10.75 1.00011L9.24998 1.00011L9.24998 12.5715L10.75 12.5715Z" fill="#EB473D"/>
<path d="M1 15.1428L1 16.4285C1 17.8487 2.15127 19 3.57143 19L16.4286 19C17.8487 19 19 17.8487 19 16.4285V15.1428" stroke="#EB473D" stroke-width="1.5"/>
</svg>
