<svg width="20" height="20" viewBox="0 0 20 20" fill="none" xmlns="http://www.w3.org/2000/svg">
<path d="M11.0821 13.5307L11.0824 13.531C11.4019 13.8504 11.5624 14.2531 11.5624 14.7063V14.7069C11.5619 15.1856 11.4023 15.6156 11.0451 15.9328C10.7236 16.2188 10.337 16.3696 9.90668 16.3696C9.47269 16.3696 9.08058 16.2253 8.75329 15.9407C8.38894 15.6246 8.22795 15.1899 8.22795 14.7063C8.22795 14.2494 8.39395 13.8454 8.72005 13.5268C8.85894 13.3912 9.01267 13.2846 9.17876 13.207C9.0413 13.1423 8.91335 13.0546 8.7971 12.9436L8.79637 12.9429C8.48294 12.6424 8.36759 12.2303 8.36759 11.799C8.36759 11.3147 8.44261 10.8697 8.60859 10.4767C8.76392 10.1071 8.97377 9.77867 9.23663 9.494L9.23691 9.4937C9.47573 9.23551 9.78954 8.93742 10.1742 8.60035L10.1745 8.60007C10.5041 8.31169 10.7326 8.10256 10.8673 7.96785L10.8673 7.9678C10.9823 7.85287 11.078 7.7259 11.1559 7.58595L11.1564 7.58488C11.2144 7.48125 11.2438 7.36964 11.2438 7.23984C11.2438 6.96721 11.15 6.75135 10.9435 6.56075L10.9433 6.56055C10.7427 6.3752 10.4739 6.2668 10.0923 6.2668C9.59917 6.2668 9.33952 6.39098 9.20085 6.53897L8.836 6.19708L9.20085 6.53897C9.0006 6.75266 8.80376 7.09878 8.63028 7.61644C8.52481 7.96277 8.3582 8.27271 8.10106 8.49797C7.83321 8.73261 7.50614 8.84095 7.15356 8.84095C6.73166 8.84095 6.35763 8.68621 6.06278 8.3841L6.06245 8.38377C5.79189 8.10603 5.62244 7.76531 5.62244 7.37197C5.62244 6.76919 5.81711 6.18089 6.17133 5.61429L6.17147 5.61406C6.53909 5.02671 7.06764 4.55372 7.73571 4.18864C8.42545 3.81114 9.21661 3.63069 10.0923 3.63069C10.9038 3.63069 11.6416 3.78089 12.2939 4.09544C12.9394 4.40626 13.4564 4.83919 13.8248 5.39943L13.8249 5.39951C14.1897 5.95456 14.376 6.56643 14.3761 7.22432M11.0821 13.5307L11.6508 10.4495C12.2871 9.88105 12.7279 9.47675 12.973 9.2362L13.3227 9.59355C13.3228 9.59346 13.3229 9.59338 13.3229 9.5933C13.6078 9.31448 13.8491 8.98781 14.0493 8.61672C14.2731 8.20159 14.3769 7.73223 14.3761 7.22432M11.0821 13.5307C10.9237 13.3725 10.7449 13.2534 10.5497 13.1735C10.6265 13.1313 10.6997 13.0806 10.7686 13.0204C11.0294 12.7924 11.1699 12.4784 11.2333 12.1402C11.2901 11.8909 11.3292 11.7287 11.3532 11.6433L11.3534 11.6429C11.372 11.5765 11.3991 11.507 11.4365 11.4344L11.4372 11.433C11.4639 11.3807 11.5154 11.3038 11.6055 11.2002C11.6939 11.099 11.8193 10.9729 11.9861 10.8204L11.0821 13.5307ZM14.3761 7.22432C14.3761 7.22418 14.3761 7.22404 14.3761 7.2239L13.8761 7.22474H14.3761C14.3761 7.2246 14.3761 7.22446 14.3761 7.22432ZM0.5 9.99474C0.5 4.74987 4.75495 0.5 10.0004 0.5C15.2487 0.5 19.5 4.74972 19.5 9.99474C19.5 15.2455 15.2482 19.5 10.0004 19.5C4.75546 19.5 0.5 15.2454 0.5 9.99474Z" stroke="#EB473D"/>
</svg>
