<svg width="20" height="20" viewBox="0 0 20 20" fill="none" xmlns="http://www.w3.org/2000/svg">
<path d="M10.0004 0C4.47918 0 0 4.47335 0 9.99474C0 15.5214 4.47918 20 10.0004 20C15.5246 20 20 15.5214 20 9.99474C20 4.47335 15.5246 0 10.0004 0ZM10.713 15.559C10.4808 15.7657 10.2116 15.8696 9.90668 15.8696C9.59119 15.8696 9.31599 15.7676 9.08109 15.5631C8.84582 15.3591 8.72795 15.0734 8.72795 14.7063C8.72795 14.3807 8.84202 14.1066 9.06942 13.8845C9.29682 13.6624 9.57577 13.5514 9.90668 13.5514C10.2323 13.5514 10.5064 13.6624 10.7289 13.8845C10.951 14.1066 11.0624 14.3807 11.0624 14.7063C11.062 15.0681 10.9457 15.3524 10.713 15.559ZM13.6092 8.37939C13.4307 8.71028 13.2188 8.99561 12.973 9.2362C12.7279 9.47675 12.2871 9.88105 11.6508 10.4495C11.4754 10.6099 11.3342 10.7506 11.2284 10.8718C11.1226 10.9935 11.0436 11.1045 10.992 11.2054C10.94 11.3062 10.9002 11.4072 10.8719 11.508C10.8436 11.6085 10.8011 11.7859 10.7435 12.0392C10.6457 12.5768 10.3381 12.8455 9.82118 12.8455C9.55238 12.8455 9.32651 12.7578 9.14241 12.582C8.95905 12.4062 8.86758 12.1453 8.86758 11.799C8.86758 11.365 8.93497 10.9889 9.06937 10.6708C9.20303 10.3527 9.38185 10.0738 9.60397 9.83321C9.82646 9.59266 10.1261 9.30729 10.5037 8.97639C10.8346 8.6869 11.0737 8.46858 11.2209 8.32136C11.3684 8.17381 11.4923 8.00968 11.5928 7.82897C11.6941 7.64789 11.7438 7.45176 11.7438 7.23984C11.7438 6.82613 11.5906 6.47754 11.2827 6.19333C10.9751 5.90911 10.5783 5.7668 10.0923 5.7668C9.52343 5.7668 9.1048 5.91022 8.836 6.19708C8.56719 6.48394 8.34021 6.9063 8.15384 7.46459C7.97767 8.04886 7.64412 8.34095 7.15356 8.34095C6.86406 8.34095 6.61975 8.23892 6.4206 8.03487C6.22182 7.83082 6.12243 7.60987 6.12243 7.37197C6.12243 6.88106 6.28018 6.38339 6.5953 5.87933C6.91079 5.37528 7.37082 4.95778 7.97577 4.62725C8.58035 4.29635 9.28626 4.13069 10.0923 4.13069C10.8418 4.13069 11.5032 4.26921 12.077 4.54592C12.6507 4.82222 13.0942 5.19832 13.407 5.67413C13.7195 6.14956 13.8761 6.66645 13.8761 7.22474C13.8768 7.66336 13.7876 8.04849 13.6092 8.37939Z" fill="#EB473D"/>
</svg>
