<svg width="26" height="24" viewBox="0 0 26 24" fill="none" xmlns="http://www.w3.org/2000/svg">
<path d="M24.7416 10.8026L14.5558 0.7726C14.5428 0.75969 14.5293 0.747162 14.5155 0.735017C13.4032 -0.241905 11.7226 -0.245396 10.6061 0.726936C10.5922 0.739034 10.5787 0.751514 10.5656 0.764328L0.287008 10.7996C-0.0951228 11.1728 -0.0957582 11.7783 0.285639 12.1521C0.667085 12.5259 1.28603 12.5265 1.66811 12.1535L2.44391 11.396V19.653C2.44391 21.7623 4.19805 23.4783 6.35417 23.4783H9.8734C10.4133 23.4783 10.851 23.0501 10.851 22.5219V14.728H14.2724V22.5219C14.2724 23.0501 14.7101 23.4783 15.25 23.4783H18.6715C20.8276 23.4783 22.5818 21.7623 22.5818 19.653C22.5818 19.1248 22.1441 18.6967 21.6042 18.6967C21.0643 18.6967 20.6266 19.1248 20.6266 19.653C20.6266 20.7076 19.7495 21.5656 18.6715 21.5656H16.2276V13.7717C16.2276 13.2435 15.7899 12.8154 15.25 12.8154H9.8734C9.33349 12.8154 8.89584 13.2435 8.89584 13.7717V21.5656H6.35417C5.27611 21.5656 4.39904 20.7076 4.39904 19.653V9.51608C4.39904 9.50652 4.39889 9.497 4.3986 9.48754L11.9236 2.14061C12.2899 1.83636 12.8271 1.8375 13.1919 2.14324L20.6266 9.4643V14.8714C20.6266 15.3996 21.0643 15.8278 21.6042 15.8278C22.1441 15.8278 22.5818 15.3996 22.5818 14.8714V11.3895L23.3546 12.1506C23.5457 12.3387 23.7968 12.4329 24.0481 12.4329C24.2972 12.4329 24.5464 12.3403 24.7371 12.155C25.1201 11.7827 25.1221 11.1772 24.7416 10.8026Z" fill="white"/>
</svg>
