<svg width="18" height="22" viewBox="0 0 18 22" fill="none" xmlns="http://www.w3.org/2000/svg">
<path d="M10.0166 4.06666C10.0166 4.3795 10.2704 4.63333 10.5833 4.63333C10.8959 4.63333 11.15 4.38053 11.15 4.06666V2.66666C11.15 1.66466 10.3353 0.85 9.33329 0.85C8.33128 0.85 7.51663 1.66466 7.51663 2.66666V4.06666C7.51663 4.38053 7.77065 4.63333 8.08329 4.63333C8.39613 4.63333 8.64996 4.3795 8.64996 4.06666V2.66666C8.64996 2.29034 8.95697 1.98333 9.33329 1.98333C9.70961 1.98333 10.0166 2.29034 10.0166 2.66666V4.06666Z" fill="#EB473D" stroke="#EB473D" stroke-width="0.3"/>
<path d="M6.26663 18.0834C6.26663 19.7746 7.64211 21.1501 9.33329 21.1501C11.0245 21.1501 12.3999 19.7746 12.3999 18.0834C12.3999 17.7706 12.1461 17.5167 11.8333 17.5167C11.5204 17.5167 11.2666 17.7706 11.2666 18.0834C11.2666 19.1489 10.3988 20.0167 9.33329 20.0167C8.2678 20.0167 7.39996 19.1489 7.39996 18.0834C7.39996 17.7706 7.14613 17.5167 6.83329 17.5167C6.52045 17.5167 6.26663 17.7706 6.26663 18.0834Z" fill="#EB473D" stroke="#EB473D" stroke-width="0.3"/>
<path d="M1.34104 16.1854L1.3403 16.186C1.02872 16.4528 0.850366 16.8403 0.850366 17.25C0.850366 18.022 1.47836 18.65 2.25036 18.65H16.417C17.1899 18.65 17.817 18.0219 17.817 17.25C17.817 16.8397 17.6382 16.4525 17.3204 16.1802L17.3196 16.1796C16.0467 15.1039 15.317 13.5317 15.317 11.865V9.33332C15.317 6.03382 12.6332 3.35 9.33368 3.35C6.03418 3.35 3.35036 6.03382 3.35036 9.33332V11.865C3.35036 13.5307 2.62073 15.1038 1.34104 16.1854ZM4.48369 9.33332C4.48369 6.65867 6.65903 4.48333 9.33368 4.48333C12.0083 4.48333 14.1837 6.65867 14.1837 9.33332V11.865C14.1837 13.8649 15.0605 15.7533 16.5906 17.0476C16.6496 17.0982 16.6837 17.1723 16.6837 17.25C16.6837 17.3971 16.5642 17.5166 16.417 17.5166H2.25036C2.10321 17.5166 1.9837 17.3971 1.9837 17.25C1.9837 17.173 2.01718 17.0987 2.08002 17.0451C3.60769 15.7533 4.48369 13.8657 4.48369 11.865V9.33332Z" fill="#EB473D" stroke="#EB473D" stroke-width="0.3"/>
</svg>
