<svg width="20" height="20" viewBox="0 0 20 20" fill="none" xmlns="http://www.w3.org/2000/svg">
<path d="M0.813261 19.1868L1.16608 18.834L0.813264 19.1868C1.02267 19.3962 1.28373 19.3998 1.43846 19.3846C1.57901 19.3709 1.74637 19.329 1.90307 19.2897C1.91199 19.2875 1.92088 19.2853 1.92972 19.283L5.91717 18.2862C5.9323 18.2824 5.94731 18.2787 5.96221 18.275C6.18494 18.2195 6.3821 18.1704 6.56113 18.0691C6.74016 17.9677 6.88369 17.8239 7.04581 17.6614C7.05665 17.6506 7.06758 17.6396 7.0786 17.6286L17.2727 7.43451L17.296 7.41122C17.6094 7.09782 17.8795 6.8278 18.0666 6.58248C18.2672 6.31956 18.4191 6.02713 18.4191 5.66675C18.4191 5.30636 18.2672 5.01394 18.0666 4.75102C17.8795 4.50569 17.6094 4.23565 17.2959 3.92225L17.2831 3.90937L17.2727 3.89898L16.1011 2.72741L16.0778 2.70414C15.7644 2.3907 15.4944 2.12063 15.2491 1.93345C14.9861 1.73285 14.6937 1.58096 14.3333 1.58096C13.9729 1.58096 13.6805 1.73285 13.4176 1.93345C13.1723 2.12063 12.9022 2.39069 12.5888 2.70413L12.5656 2.72741L2.37149 12.9215C2.36047 12.9325 2.34952 12.9434 2.33866 12.9543C2.17619 13.1164 2.03236 13.2599 1.931 13.4389C1.82963 13.618 1.78056 13.8152 1.72513 14.0379C1.72142 14.0528 1.71769 14.0678 1.71391 14.0829L0.717042 18.0704C0.714828 18.0792 0.712599 18.0881 0.710362 18.0971C0.671119 18.2537 0.629208 18.4211 0.61546 18.5616C0.600323 18.7164 0.603851 18.9774 0.813261 19.1868Z" stroke="#EB473D"/>
<path d="M11 3.66667L15 1L19 5L16.3333 9L11 3.66667Z" fill="#EB473D" stroke="#EB473D"/>
</svg>
