<svg width="14" height="22" viewBox="0 0 14 22" fill="none" xmlns="http://www.w3.org/2000/svg">
<path d="M2.05546 2.05546C1.59999 2.51093 1.41432 3.07773 1.32991 3.70552C1.24994 4.3003 1.24997 5.04952 1.25 5.948L1.25 6V16L1.25 16.052C1.24997 16.9505 1.24994 17.6997 1.32991 18.2945C1.41432 18.9223 1.59999 19.4891 2.05546 19.9445C2.51093 20.4 3.07773 20.5857 3.70552 20.6701C4.3003 20.7501 5.04952 20.75 5.94801 20.75H6H8H8.05199C8.95048 20.75 9.6997 20.7501 10.2945 20.6701C10.9223 20.5857 11.4891 20.4 11.9445 19.9445C12.4 19.4891 12.5857 18.9223 12.6701 18.2945C12.7501 17.6997 12.75 16.9505 12.75 16.052L12.75 16V6L12.75 5.94801C12.75 5.04952 12.7501 4.3003 12.6701 3.70552C12.5857 3.07773 12.4 2.51093 11.9445 2.05546C11.4891 1.59999 10.9223 1.41432 10.2945 1.32991C9.6997 1.24994 8.95048 1.24997 8.052 1.25L8 1.25H6L5.948 1.25C5.04952 1.24997 4.3003 1.24994 3.70552 1.32991C3.07773 1.41432 2.51093 1.59999 2.05546 2.05546Z" stroke="#EB473D" stroke-width="1.5"/>
<path d="M2 15H12" stroke="#EB473D" stroke-width="1.5"/>
</svg>
