<svg width="18" height="18" viewBox="0 0 18 18" fill="none" xmlns="http://www.w3.org/2000/svg">
<path d="M17.9544 15.0885C17.8752 14.7167 17.503 14.4779 17.1227 14.5554C16.7425 14.6328 16.4985 14.9971 16.5777 15.3689C16.6233 15.5832 16.5689 15.8027 16.4287 15.9715C16.3475 16.0692 16.1664 16.233 15.8663 16.233H2.13373C1.83356 16.233 1.65247 16.0691 1.57126 15.9715C1.43102 15.8028 1.37674 15.5832 1.42234 15.3689C2.15204 11.9402 5.24351 9.43559 8.8136 9.35112C8.87544 9.35346 8.93756 9.35463 9 9.35463C9.06265 9.35463 9.12501 9.35343 9.1871 9.35109C11.7019 9.41011 14.0263 10.6562 15.4339 12.7098C15.6502 13.0254 16.0869 13.1096 16.4095 12.8981C16.732 12.6865 16.8182 12.2592 16.6019 11.9437C15.4482 10.2604 13.7729 9.03644 11.8627 8.4214C13.0267 7.56748 13.7813 6.20697 13.7813 4.67732C13.7813 2.09826 11.6364 0 9 0C6.36359 0 4.21874 2.09826 4.21874 4.67732C4.21874 6.2079 4.97418 7.56914 6.13944 8.42299C5.07181 8.76684 4.07003 9.30188 3.19323 10.0074C1.58547 11.3011 0.4676 13.1056 0.0456193 15.0885C-0.0866387 15.7099 0.0718108 16.3481 0.480257 16.8394C0.886699 17.3283 1.48938 17.6087 2.13373 17.6087H15.8662C16.5106 17.6087 17.1133 17.3283 17.5197 16.8394C17.9282 16.3481 18.0866 15.7099 17.9544 15.0885ZM5.62499 4.67732C5.62499 2.85677 7.139 1.37568 9 1.37568C10.861 1.37568 12.375 2.85677 12.375 4.67732C12.375 6.4418 10.9528 7.88743 9.17082 7.97476C9.11397 7.97372 9.05702 7.97321 9 7.97321C8.94326 7.97321 8.88651 7.97376 8.82984 7.97479C7.04759 7.88781 5.62499 6.44204 5.62499 4.67732Z" fill="#D2D2D2"/>
</svg>
