<svg width="25" height="24" viewBox="0 0 25 24" fill="none" xmlns="http://www.w3.org/2000/svg">
<path d="M24.3537 20.2221L24.3537 20.2221C24.4979 20.8998 24.3261 21.5947 23.8787 22.1328L23.8786 22.1329C23.4332 22.6687 22.7714 22.9783 22.0585 22.9783H3.74853C3.03568 22.9783 2.37385 22.6687 1.9284 22.1329C1.48104 21.5947 1.3092 20.8998 1.45343 20.2221L1.45344 20.2221C1.99167 17.6929 3.41885 15.387 5.47466 13.7327C6.59507 12.8312 7.87625 12.1467 9.24275 11.7066L10.1751 11.4063L9.385 10.8273C7.95162 9.777 7.02855 8.10792 7.02855 6.23641C7.02855 3.08412 9.65407 0.5 12.9035 0.5C16.153 0.5 18.7785 3.08412 18.7785 6.23641C18.7785 8.10679 17.8566 9.77498 16.4247 10.8254L15.6354 11.4044L16.5672 11.7045C19.0112 12.4914 21.1528 14.0567 22.627 16.2076L22.627 16.2077C22.7547 16.3939 22.7079 16.6486 22.5087 16.7793C22.3029 16.9142 22.0268 16.8568 21.8945 16.6637L21.8945 16.6637C19.9252 13.7906 16.6757 12.0506 13.1647 11.9682L13.1495 11.9679L13.1342 11.9685C13.0576 11.9713 12.9807 11.9728 12.9035 11.9728C12.8265 11.9728 12.75 11.9714 12.6739 11.9685L12.6586 11.9679L12.6432 11.9683C7.65988 12.0862 3.33383 15.5816 2.31097 20.3878C2.21823 20.8235 2.32938 21.2724 2.61409 21.6149L2.61411 21.6149C2.77591 21.8095 3.14519 22.144 3.74853 22.144H22.0586C22.6619 22.144 23.0312 21.8096 23.193 21.6148L23.1931 21.6148C23.4776 21.2724 23.5889 20.8236 23.4961 20.3878L23.4961 20.3878C23.4504 20.1731 23.5894 19.9468 23.8335 19.8971C24.0809 19.8467 24.3072 20.0038 24.3537 20.2221ZM13.1222 11.1329L13.139 11.1332L13.1558 11.1324C15.7869 11.0035 17.9035 8.86669 17.9035 6.23641C17.9035 3.52258 15.6506 1.33424 12.9035 1.33424C10.1565 1.33424 7.90355 3.52258 7.90355 6.23641C7.90355 8.86705 10.0207 11.004 12.6523 11.1324L12.669 11.1333L12.6858 11.133C12.7585 11.1316 12.8311 11.1309 12.9035 11.1309C12.9766 11.1309 13.0495 11.1316 13.1222 11.1329Z" fill="#EB473D" stroke="#EB473D"/>
</svg>
