<svg width="24" height="24" viewBox="0 0 24 24" fill="none" xmlns="http://www.w3.org/2000/svg">
<g clip-path="url(#clip0)">
<path d="M9.28603 10.7142H5.55863L5.55992 10.7026C5.7278 9.88055 6.05639 9.09973 6.5268 8.40498C7.22684 7.37357 8.20876 6.56527 9.35546 6.07648C9.74376 5.9119 10.1488 5.7859 10.5615 5.70232C11.4177 5.52874 12.3 5.52874 13.1562 5.70232C14.3866 5.95445 15.5156 6.56302 16.4027 7.45223L18.2233 5.63675C17.4028 4.81597 16.4319 4.16076 15.3638 3.70683C14.819 3.47621 14.2526 3.30047 13.673 3.18225C12.4771 2.93925 11.2444 2.93925 10.0485 3.18225C9.46842 3.30096 8.90161 3.47712 8.35643 3.70812C6.74992 4.3897 5.37468 5.52115 4.39631 6.96622C3.73786 7.94063 3.2774 9.03499 3.04113 10.187C3.00512 10.3606 2.98584 10.538 2.96012 10.7142H-1L4.14302 15.8572L9.28603 10.7142ZM14.429 13.2857H18.1565L18.1552 13.296C17.8192 14.944 16.8478 16.3935 15.4512 17.3307C14.7567 17.8015 13.9758 18.1301 13.1536 18.2976C12.2978 18.4712 11.416 18.4712 10.5602 18.2976C9.73815 18.1297 8.95733 17.8011 8.26257 17.3307C7.92136 17.0999 7.60278 16.8373 7.31111 16.5464L5.49306 18.3644C6.31402 19.185 7.2853 19.8398 8.35386 20.2931C8.89902 20.5245 9.46861 20.7006 10.0446 20.8176C11.2401 21.0608 12.4724 21.0608 13.6679 20.8176C15.9727 20.3393 18 18.9808 19.3188 17.0311C19.9766 16.0574 20.4366 14.964 20.6727 13.8129C20.7074 13.6393 20.728 13.4618 20.7537 13.2857H24.7151L19.5721 8.14268L14.429 13.2857Z" fill="#353535"/>
</g>
<defs>
<clipPath id="clip0">
<rect width="24" height="24" fill="white"/>
</clipPath>
</defs>
</svg>
