<svg width="20" height="24" viewBox="0 0 20 24" fill="none" xmlns="http://www.w3.org/2000/svg">
    <path
        d="M8.51125 5.45312H15.1633C15.4154 5.45312 15.6009 5.65023 15.6009 5.87038C15.6009 6.09054 15.4154 6.28763 15.1633 6.28763H8.51125C8.2591 6.28763 8.07361 6.09054 8.07361 5.87038C8.07361 5.65021 8.2591 5.45312 8.51125 5.45312Z"
        fill="#FFFFFF" stroke="#FFFFFF" />
    <path
        d="M8.51125 9.12207H15.1633C15.4154 9.12207 15.6009 9.31915 15.6009 9.53933C15.6009 9.75948 15.4154 9.95658 15.1633 9.95658H8.51125C8.2591 9.95658 8.07361 9.7595 8.07361 9.53933C8.07361 9.31916 8.2591 9.12207 8.51125 9.12207Z"
        fill="#FFFFFF" stroke="#FFFFFF" />
    <path
        d="M8.51125 12.791H11.371C11.6232 12.791 11.8087 12.9881 11.8087 13.2083C11.8087 13.4284 11.6232 13.6255 11.371 13.6255H8.51125C8.2591 13.6255 8.07361 13.4284 8.07361 13.2083C8.07361 12.9881 8.2591 12.791 8.51125 12.791Z"
        fill="#FFFFFF" stroke="#FFFFFF" />
    <path
        d="M3.77619 4.16563H4.27572L4.27619 3.6661C4.27784 1.93075 5.72544 0.5 7.52675 0.5H16.153C17.9553 0.5 19.4036 1.93236 19.4036 3.66902V11.5573C19.4036 11.7775 19.2181 11.9746 18.9659 11.9746C18.7138 11.9746 18.5283 11.7775 18.5283 11.5574V11.5574V3.66902C18.5283 2.37104 17.4528 1.33451 16.1531 1.33451H7.52675C6.22701 1.33451 5.15147 2.37104 5.15147 3.66902V16.143C5.15147 16.7692 5.40203 17.3583 5.85125 17.7977C6.29998 18.2367 6.89682 18.4775 7.52675 18.4775H7.52717H7.52729L16.1535 18.4754C17.453 18.4751 18.5282 17.4386 18.5282 16.1409C18.5282 15.9207 18.7137 15.7237 18.9659 15.7237C19.218 15.7237 19.4035 15.9207 19.4035 16.1409C19.4035 17.744 18.1697 19.0879 16.561 19.2851L16.1218 19.3389V19.7814V19.8092C16.1218 21.5459 14.6736 22.9783 12.8712 22.9783H3.77619C1.97385 22.9783 0.525635 21.5459 0.525635 19.8092V7.33465C0.525635 5.59798 1.97389 4.16563 3.77619 4.16563ZM15.2465 19.8104L15.2468 19.31L14.7464 19.3102L7.52769 19.3119H7.52757H7.52675C6.65411 19.3119 5.83849 18.9805 5.22465 18.3801L5.22463 18.3801C4.61105 17.78 4.27624 16.9869 4.27624 16.1429V5.50005V5.00005H3.77624C2.4765 5.00005 1.40096 6.03658 1.40096 7.33456V19.8092C1.40096 21.1071 2.4765 22.1437 3.77624 22.1437H12.8712C14.1706 22.1437 15.2458 21.1078 15.2465 19.8104Z"
        fill="#FFFFFF" stroke="#FFFFFF" />
</svg>