<svg width="26" height="25" viewBox="0 0 26 25" fill="none" xmlns="http://www.w3.org/2000/svg">
<path d="M1.22782 24.2787L1.22783 24.2787C1.43079 24.4786 1.69736 24.5783 1.9632 24.5783C2.22668 24.5783 2.49101 24.4803 2.69349 24.2836L2.62381 24.2118L2.6935 24.2836L8.94897 18.2057C10.6554 19.5524 12.8244 20.3595 15.1819 20.3595C16.8873 20.3595 18.5703 19.9297 20.0491 19.1161C20.5485 18.8414 20.7274 18.2207 20.4451 17.7297C20.1637 17.2401 19.5317 17.068 19.0335 17.3421C17.8647 17.9852 16.5328 18.3253 15.1819 18.3253C10.8411 18.3253 7.3132 14.8709 7.3132 10.6298C7.3132 6.3886 10.8411 2.93424 15.1819 2.93424C19.5228 2.93424 23.0507 6.3886 23.0507 10.6298C23.0507 11.9663 22.6952 13.2823 22.0229 14.4355C21.7376 14.9247 21.9127 15.5465 22.4104 15.8242L22.4591 15.7369L22.4104 15.8242C22.9068 16.1012 23.5398 15.9329 23.8243 15.445L23.7379 15.3947L23.8243 15.445C24.6757 13.9848 25.1257 12.3198 25.1257 10.6298C25.1257 5.26262 20.6629 0.9 15.1819 0.9C9.70096 0.9 5.2382 5.26262 5.2382 10.6298C5.2382 12.9575 6.07796 15.0968 7.47604 16.7728L1.23286 22.8387L1.30238 22.9103L1.23286 22.8387C0.825284 23.2347 0.823028 23.8799 1.22782 24.2787Z" fill="#EB473D" stroke="#EB473D" stroke-width="0.2"/>
</svg>
