<svg width="22" height="18" viewBox="0 0 22 18" fill="none" xmlns="http://www.w3.org/2000/svg">
<path d="M2.15838 10.9306C1.44537 9.74229 1.44537 8.25771 2.15838 7.06937V7.06937C2.37596 6.70674 2.73641 6.45272 3.1511 6.36978L4.84413 6.03117C4.94499 6.011 5.03591 5.95691 5.10176 5.87788L7.17085 3.39498C8.3534 1.97592 8.94468 1.26638 9.47234 1.45742C10 1.64846 10 2.57207 10 4.41928L10 13.5807C10 15.4279 10 16.3515 9.47234 16.5426C8.94468 16.7336 8.3534 16.0241 7.17085 14.605L5.10176 12.1221C5.03591 12.0431 4.94499 11.989 4.84413 11.9688L3.1511 11.6302C2.73641 11.5473 2.37596 11.2933 2.15838 10.9306V10.9306Z" stroke="#EB473D" stroke-width="1.5"/>
<path d="M14.5355 5.46447C15.4684 6.39732 15.9948 7.66105 16 8.9803C16.0052 10.2996 15.4888 11.5674 14.5633 12.5076" stroke="#EB473D" stroke-width="1.5" stroke-linecap="round"/>
<path d="M18.6569 3.34314C20.1494 4.83572 20.9916 6.85769 20.9999 8.96848C21.0083 11.0793 20.182 13.1078 18.7012 14.6121" stroke="#EB473D" stroke-width="1.5" stroke-linecap="round"/>
</svg>
