<svg width="21" height="24" viewBox="0 0 21 24" fill="none" xmlns="http://www.w3.org/2000/svg">
<path fill-rule="evenodd" clip-rule="evenodd" d="M0 11.6769C0 9.64649 0 8.63127 0.410439 7.73888C0.820879 6.8465 1.59169 6.1858 3.13331 4.86441L4.62875 3.58261C7.41522 1.1942 8.80846 0 10.4681 0C12.1276 0 13.5209 1.1942 16.3074 3.58261L17.8028 4.86441C19.3444 6.1858 20.1152 6.8465 20.5257 7.73888C20.9361 8.63127 20.9361 9.64649 20.9361 11.6769V18.0182C20.9361 20.838 20.9361 22.2479 20.0601 23.1239C19.24 23.944 17.9519 23.9963 15.4772 23.9997V16.0273C15.4772 14.9228 14.5818 14.0273 13.4772 14.0273H8C6.89543 14.0273 6 14.9228 6 16.0273V23.9999H5.98174C3.16192 23.9999 1.75201 23.9999 0.876006 23.1239C0 22.2479 0 20.838 0 18.0182V11.6769ZM8 23.9999H13.4772L13.4772 16.0273H8V23.9999Z" fill="white"/>
</svg>
